<mxfile host="65bd71144e">
    <diagram id="AsqLqAmwpjqohVh-cp7-" name="Page-1">
        <mxGraphModel dx="1204" dy="1120" grid="0" gridSize="10" guides="1" tooltips="1" connect="1" arrows="1" fold="1" page="0" pageScale="1" pageWidth="827" pageHeight="1169" background="#FFFFFF" math="0" shadow="0">
            <root>
                <mxCell id="0"/>
                <mxCell id="1" parent="0"/>
                <mxCell id="21" style="edgeStyle=none;html=1;exitX=1;exitY=0.5;exitDx=0;exitDy=0;strokeColor=#3333FF;endArrow=none;endFill=0;" edge="1" parent="1" source="8" target="13">
                    <mxGeometry relative="1" as="geometry"/>
                </mxCell>
                <mxCell id="8" value="HOME" style="rounded=1;whiteSpace=wrap;html=1;strokeColor=#3333FF;" vertex="1" parent="1">
                    <mxGeometry x="69" y="139" width="120" height="60" as="geometry"/>
                </mxCell>
                <mxCell id="9" value="ユーザー登録" style="rounded=1;whiteSpace=wrap;html=1;strokeColor=#3333FF;" vertex="1" parent="1">
                    <mxGeometry x="69" y="-98" width="120" height="60" as="geometry"/>
                </mxCell>
                <mxCell id="10" value="ログイン" style="rounded=1;whiteSpace=wrap;html=1;strokeColor=#3333FF;" vertex="1" parent="1">
                    <mxGeometry x="69" y="-15" width="120" height="60" as="geometry"/>
                </mxCell>
                <mxCell id="11" value="ヘッダー" style="rounded=1;whiteSpace=wrap;html=1;strokeColor=#3333FF;" vertex="1" parent="1">
                    <mxGeometry x="-110" y="-98" width="120" height="60" as="geometry"/>
                </mxCell>
                <mxCell id="26" style="edgeStyle=none;html=1;exitX=1;exitY=0.5;exitDx=0;exitDy=0;entryX=0;entryY=0.5;entryDx=0;entryDy=0;strokeColor=#3333FF;endArrow=none;endFill=0;" edge="1" parent="1" source="12" target="25">
                    <mxGeometry relative="1" as="geometry"/>
                </mxCell>
                <mxCell id="12" value="ユーザー詳細ページ" style="rounded=1;whiteSpace=wrap;html=1;strokeColor=#3333FF;" vertex="1" parent="1">
                    <mxGeometry x="69" y="62" width="120" height="60" as="geometry"/>
                </mxCell>
                <mxCell id="22" style="edgeStyle=none;html=1;exitX=1;exitY=0.5;exitDx=0;exitDy=0;entryX=0;entryY=0.5;entryDx=0;entryDy=0;strokeColor=#3333FF;endArrow=none;endFill=0;" edge="1" parent="1" source="13" target="14">
                    <mxGeometry relative="1" as="geometry"/>
                </mxCell>
                <mxCell id="13" value="ひとりごと投稿" style="rounded=1;whiteSpace=wrap;html=1;strokeColor=#3333FF;" vertex="1" parent="1">
                    <mxGeometry x="225" y="139" width="120" height="60" as="geometry"/>
                </mxCell>
                <mxCell id="23" style="edgeStyle=none;html=1;exitX=1;exitY=0.5;exitDx=0;exitDy=0;entryX=0;entryY=0.5;entryDx=0;entryDy=0;strokeColor=#3333FF;endArrow=none;endFill=0;" edge="1" parent="1" source="14" target="15">
                    <mxGeometry relative="1" as="geometry"/>
                </mxCell>
                <mxCell id="14" value="ひとりごと詳細" style="rounded=1;whiteSpace=wrap;html=1;strokeColor=#3333FF;" vertex="1" parent="1">
                    <mxGeometry x="381" y="139" width="120" height="60" as="geometry"/>
                </mxCell>
                <mxCell id="15" value="コメント投稿" style="rounded=1;whiteSpace=wrap;html=1;strokeColor=#3333FF;" vertex="1" parent="1">
                    <mxGeometry x="529" y="139" width="120" height="60" as="geometry"/>
                </mxCell>
                <mxCell id="16" value="" style="edgeStyle=orthogonalEdgeStyle;endArrow=none;html=1;strokeColor=#3333FF;exitX=0;exitY=0.5;exitDx=0;exitDy=0;" edge="1" parent="1" source="10">
                    <mxGeometry width="50" height="100" relative="1" as="geometry">
                        <mxPoint x="-16" y="367" as="sourcePoint"/>
                        <mxPoint x="39" y="-67" as="targetPoint"/>
                    </mxGeometry>
                </mxCell>
                <mxCell id="17" value="" style="endArrow=none;html=1;strokeColor=#3333FF;entryX=1;entryY=0.5;entryDx=0;entryDy=0;exitX=0;exitY=0.5;exitDx=0;exitDy=0;" edge="1" parent="1" source="9" target="11">
                    <mxGeometry width="50" height="100" relative="1" as="geometry">
                        <mxPoint x="74" y="61" as="sourcePoint"/>
                        <mxPoint x="27" y="67" as="targetPoint"/>
                    </mxGeometry>
                </mxCell>
                <mxCell id="18" value="" style="edgeStyle=orthogonalEdgeStyle;endArrow=none;html=1;strokeColor=#3333FF;exitX=0;exitY=0.5;exitDx=0;exitDy=0;" edge="1" parent="1" source="12">
                    <mxGeometry width="50" height="100" relative="1" as="geometry">
                        <mxPoint x="64" y="91" as="sourcePoint"/>
                        <mxPoint x="39" y="-66" as="targetPoint"/>
                    </mxGeometry>
                </mxCell>
                <mxCell id="19" value="" style="edgeStyle=orthogonalEdgeStyle;endArrow=none;html=1;strokeColor=#3333FF;exitX=0;exitY=0.5;exitDx=0;exitDy=0;" edge="1" parent="1" source="8">
                    <mxGeometry width="50" height="100" relative="1" as="geometry">
                        <mxPoint x="79" y="102" as="sourcePoint"/>
                        <mxPoint x="39" y="-68" as="targetPoint"/>
                    </mxGeometry>
                </mxCell>
                <mxCell id="25" value="ユーザー編集ページ" style="rounded=1;whiteSpace=wrap;html=1;strokeColor=#3333FF;" vertex="1" parent="1">
                    <mxGeometry x="225" y="62" width="120" height="60" as="geometry"/>
                </mxCell>
            </root>
        </mxGraphModel>
    </diagram>
</mxfile>